<?xml version="1.0" standalone="no"?>
<!DOCTYPE svg PUBLIC "-//W3C//DTD SVG 20010904//EN"
 "http://www.w3.org/TR/2001/REC-SVG-20010904/DTD/svg10.dtd">
<svg version="1.0" xmlns="http://www.w3.org/2000/svg"
 width="600.000000pt" height="600.000000pt" viewBox="0 0 600.000000 600.000000"
 preserveAspectRatio="xMidYMid meet">
<metadata>
Created by potrace 1.10, written by Peter Selinger 2001-2011
</metadata>
<g transform="translate(0.000000,600.000000) scale(0.100000,-0.100000)"
fill="#000000" stroke="none">
<path d="M0 3993 l0 -2006 23 21 c20 19 35 21 136 23 135 1 152 -8 170 -98 23
-115 7 -163 -53 -163 -40 0 -46 11 -46 86 0 46 -4 56 -24 69 -33 22 -88 16
-101 -11 -6 -13 -10 -140 -9 -342 0 -365 -1 -357 72 -349 25 3 48 11 53 18 5
8 8 66 7 129 -3 113 -3 114 -28 120 -20 5 -26 13 -28 44 -2 20 1 43 7 49 12
15 126 14 145 -2 11 -9 13 -45 11 -179 -3 -190 -8 -222 -40 -252 -22 -20 -33
-22 -136 -21 -101 2 -116 4 -136 23 l-23 21 0 -586 0 -587 3000 0 3000 0 0
590 c0 456 -3 590 -12 590 -7 0 -21 -11 -33 -24 -21 -26 -34 -29 -151 -27 -66
1 -72 3 -92 30 -15 21 -22 46 -24 91 -3 77 5 83 85 71 4 0 7 -13 7 -29 0 -37
26 -72 53 -72 44 0 51 14 51 97 1 110 -1 113 -74 113 -51 0 -64 4 -90 27 l-30
28 -1 142 c-1 188 10 205 136 206 79 1 121 -11 139 -38 9 -14 21 -25 26 -25 7
0 10 745 10 2115 l0 2115 -3000 0 -3000 0 0 -2007z m3208 1400 c6 -16 10 -73
8 -127 -2 -116 5 -130 75 -141 24 -4 57 -13 73 -21 38 -18 55 -7 91 61 79 149
96 163 155 131 80 -43 119 -65 155 -87 22 -13 57 -33 78 -44 21 -11 47 -29 57
-40 21 -23 23 -17 -34 -115 -14 -25 -30 -55 -35 -67 -5 -11 -15 -24 -20 -28
-26 -16 -9 -55 54 -120 l65 -68 43 22 c23 12 56 31 72 41 56 35 106 60 119 60
13 0 86 -103 86 -122 0 -5 11 -24 24 -41 14 -18 30 -43 36 -57 14 -33 33 -64
49 -83 7 -9 11 -31 9 -49 -6 -59 -54 -45 -89 27 -5 11 -18 34 -29 50 -11 17
-23 37 -27 45 -16 31 -75 130 -78 130 -7 0 -73 -33 -100 -50 -59 -37 -106 -60
-123 -60 -9 0 -57 41 -105 90 -49 50 -92 90 -97 90 -14 0 -20 48 -10 72 6 13
19 37 30 53 10 17 31 53 46 82 30 56 26 74 -21 94 -11 5 -27 13 -35 18 -110
68 -170 89 -170 60 0 -6 -13 -31 -30 -56 -16 -24 -30 -49 -30 -54 0 -15 -49
-76 -66 -83 -8 -3 -29 1 -47 8 -60 26 -132 46 -160 46 -15 0 -41 7 -57 15
l-28 15 -4 124 c-2 68 -7 128 -11 133 -12 12 -239 15 -256 4 -11 -7 -15 -37
-15 -124 -1 -136 -10 -153 -85 -162 -25 -3 -59 -10 -76 -16 -16 -6 -54 -17
-83 -25 -47 -12 -55 -12 -77 2 -14 9 -25 21 -25 26 0 6 -23 48 -50 94 -50 82
-51 83 -78 72 -15 -7 -34 -18 -43 -25 -8 -7 -19 -13 -22 -13 -4 0 -26 -12 -50
-27 -23 -16 -51 -30 -62 -33 -11 -3 -21 -14 -23 -23 -4 -17 22 -74 58 -132 40
-62 51 -97 38 -113 -43 -53 -203 -202 -217 -202 -10 0 -47 18 -84 40 -36 22
-70 40 -75 40 -5 0 -15 7 -22 15 -23 28 -46 16 -82 -42 -19 -32 -38 -65 -42
-73 -3 -8 -15 -28 -26 -45 -11 -16 -24 -39 -29 -50 -27 -60 -91 -71 -91 -15 0
16 5 32 11 35 5 4 14 17 20 28 5 12 13 29 19 37 24 38 100 172 100 178 0 4 12
20 26 35 21 23 32 27 53 22 14 -4 33 -13 42 -21 8 -8 19 -14 22 -14 4 0 36
-18 72 -40 36 -22 69 -40 73 -40 4 0 32 25 61 55 30 30 57 55 62 55 14 0 20
37 9 61 -6 13 -20 40 -31 59 -59 96 -77 137 -68 153 5 8 35 31 67 49 31 18 66
38 77 45 11 7 29 17 40 23 11 6 34 19 50 29 65 42 107 61 118 54 17 -10 54
-62 73 -103 4 -8 23 -39 41 -69 29 -45 38 -52 56 -47 32 10 117 32 150 40 l27
6 0 129 c0 70 3 131 7 134 3 4 97 7 208 7 l203 0 10 -27z m-190 -186 c6 -7 9
-23 5 -35 -7 -30 -59 -31 -68 -2 -12 39 38 68 63 37z m-598 -197 c21 -39 -15
-85 -46 -59 -14 12 -19 60 -7 72 13 14 43 6 53 -13z m1217 -7 c13 -19 12 -24
-7 -43 -19 -19 -24 -20 -43 -7 -28 19 -32 40 -11 61 21 21 42 17 61 -11z
m-562 -77 c17 -3 57 -9 90 -14 258 -41 529 -226 669 -457 25 -42 46 -78 46
-81 0 -3 9 -25 21 -50 23 -53 22 -97 -3 -102 -13 -3 -24 12 -43 55 -70 159
-166 289 -280 380 -79 63 -93 73 -103 73 -6 0 -17 6 -24 13 -7 6 -29 20 -48
29 -108 52 -144 62 -297 86 -86 14 -119 14 -207 4 -95 -10 -176 -29 -231 -52
-98 -42 -129 -58 -188 -98 -92 -60 -179 -142 -241 -227 -50 -67 -116 -189
-116 -213 0 -14 -41 -43 -52 -36 -15 9 -8 64 13 112 66 145 218 323 355 413
88 58 216 119 251 119 10 0 23 4 29 10 5 5 41 14 79 20 39 5 89 13 113 17 44
8 113 8 167 -1z m-1132 -417 c16 -26 1 -49 -33 -49 -26 0 -30 3 -30 28 0 16 3
32 7 36 12 11 45 2 56 -15z m2127 6 c20 -24 3 -55 -31 -55 -25 0 -29 4 -29 28
0 16 3 32 7 35 11 12 40 8 53 -8z m-859 -86 c47 -37 90 -51 127 -40 149 45
186 37 200 -43 14 -70 15 -578 2 -646 -14 -75 -51 -110 -118 -110 -34 1 -54 7
-73 23 -50 42 -54 59 -56 267 -2 107 -5 201 -8 208 -3 7 -15 12 -27 10 -23 -3
-23 -5 -28 -208 -5 -217 -9 -234 -58 -277 -36 -33 -110 -32 -150 2 -40 33 -45
66 -47 280 -1 100 -5 186 -9 193 -9 15 -39 15 -54 0 -9 -9 -12 -70 -12 -213 0
-173 -2 -204 -17 -225 -35 -50 -55 -60 -112 -57 -49 2 -57 6 -83 38 l-29 36 1
190 c0 201 -6 243 -40 243 -43 0 -51 -35 -50 -218 1 -161 0 -173 -20 -200 -50
-68 -155 -60 -199 14 -21 36 -22 45 -19 315 l3 279 28 27 c24 25 35 28 90 28
42 0 70 -6 87 -18 38 -26 62 -21 130 29 78 57 100 66 142 53 18 -5 65 -10 105
-10 64 -1 77 2 120 29 67 42 121 43 174 1z m-1463 -204 c39 -20 111 -88 135
-127 l17 -28 168 0 c92 0 173 -4 180 -8 9 -6 12 -40 11 -129 -2 -144 16 -132
-189 -127 -144 4 -190 -4 -190 -31 0 -26 -86 -104 -145 -130 -64 -30 -181 -35
-229 -10 -15 8 -34 15 -40 15 -16 0 -129 101 -121 108 3 3 53 6 112 7 92 2
108 4 119 21 7 10 17 24 21 29 79 99 85 113 61 140 -19 21 -30 36 -61 82 -34
49 -45 53 -164 53 -75 0 -93 3 -93 15 0 30 111 123 166 138 42 12 209 0 242
-18z m2719 4 c82 -37 173 -142 173 -198 0 -10 3 -21 8 -25 10 -11 11 -135 1
-142 -5 -3 -9 -15 -9 -26 0 -54 -82 -148 -165 -188 -51 -25 -74 -30 -135 -30
-61 0 -84 5 -136 30 -37 18 -77 48 -99 73 -83 97 -54 87 -253 86 -97 -1 -187
-1 -199 0 -23 1 -23 3 -23 125 0 104 3 125 16 130 9 3 102 6 208 6 l192 0 16
28 c29 49 89 103 142 127 70 33 195 35 263 4z m-785 -559 c2 -5 1 -57 -2 -115
-5 -104 -6 -106 -39 -140 l-34 -35 -272 0 -272 0 -34 35 c-36 37 -56 103 -34
111 7 3 36 -2 64 -12 50 -16 53 -16 104 6 28 12 59 28 68 36 19 17 45 18 54 3
8 -12 111 -59 131 -59 33 0 112 34 139 61 17 15 39 49 50 74 17 37 25 45 47
45 14 0 28 -4 30 -10z m236 -57 c2 -18 -6 -47 -17 -69 -12 -21 -21 -44 -21
-51 0 -6 -3 -13 -7 -15 -5 -1 -17 -21 -28 -42 -11 -22 -24 -44 -30 -50 -5 -6
-23 -30 -38 -53 -65 -94 -239 -237 -357 -291 -95 -43 -119 -52 -137 -52 -10 0
-24 -5 -30 -11 -12 -12 -269 -38 -328 -33 -130 12 -263 42 -290 65 -5 5 -15 9
-23 9 -18 0 -116 49 -166 82 -153 103 -267 233 -349 396 -29 58 -35 77 -27 93
19 34 39 20 73 -48 53 -107 109 -189 185 -266 63 -67 259 -197 295 -197 6 0
25 -7 41 -15 117 -61 421 -76 570 -28 92 30 155 57 231 102 142 84 284 236
355 381 12 25 26 53 31 62 5 10 9 24 9 31 0 19 22 38 40 35 9 -2 16 -16 18
-35z m-1980 -205 c28 -28 1 -75 -38 -63 -14 4 -20 15 -20 35 0 37 33 53 58 28z
m2132 -2 c0 -2 3 -11 6 -19 7 -20 -22 -46 -46 -40 -14 4 -20 14 -20 34 0 26 4
29 30 29 17 0 30 -2 30 -4z m298 -32 c2 -21 -6 -44 -23 -70 -15 -22 -31 -48
-36 -59 -5 -11 -18 -33 -28 -50 -11 -16 -32 -53 -47 -82 -45 -87 -77 -111
-104 -78 -7 8 -17 15 -22 15 -6 0 -44 20 -85 45 -40 25 -79 45 -86 45 -7 0
-40 -29 -74 -64 -62 -63 -80 -105 -52 -121 5 -4 15 -17 20 -28 5 -12 18 -35
29 -52 32 -50 50 -87 50 -103 0 -17 -28 -52 -42 -52 -5 0 -42 -19 -81 -43 -40
-24 -79 -47 -87 -50 -8 -4 -28 -16 -45 -27 -40 -26 -72 -40 -95 -40 -22 0 -48
39 -117 171 -24 47 -38 53 -83 35 -22 -9 -50 -16 -63 -16 -12 0 -36 -9 -54
-20 l-32 -19 4 -107 c4 -122 -5 -154 -44 -154 -179 -2 -374 0 -381 5 -6 4 -10
62 -10 134 0 127 0 128 -25 139 -14 7 -45 15 -68 18 -23 4 -54 13 -69 20 -15
8 -29 14 -32 14 -6 0 -69 -100 -76 -120 -3 -8 -19 -36 -35 -62 -37 -59 -51
-60 -131 -12 -32 20 -68 40 -79 45 -11 5 -33 18 -50 29 -16 11 -45 26 -63 34
-17 8 -43 27 -57 42 l-24 26 30 57 c17 31 39 70 50 86 30 47 39 73 32 91 -9
23 -123 134 -137 133 -6 0 -24 -9 -41 -20 -16 -10 -39 -23 -50 -28 -11 -5 -37
-21 -58 -35 -21 -15 -52 -26 -70 -26 -33 0 -40 7 -78 75 -9 17 -28 50 -42 75
-15 25 -31 54 -37 65 -6 11 -21 38 -35 60 -28 46 -32 83 -9 92 28 10 58 -13
87 -68 16 -30 37 -67 47 -84 10 -16 29 -50 42 -74 32 -61 40 -63 103 -21 17
11 37 23 45 27 8 4 36 19 61 35 25 15 49 28 52 28 4 0 56 -49 116 -110 110
-109 110 -110 99 -142 -6 -18 -16 -39 -22 -47 -12 -15 -32 -49 -42 -71 -4 -8
-13 -23 -21 -32 -21 -23 -12 -61 17 -76 14 -7 39 -21 55 -32 17 -10 56 -32 87
-49 l57 -31 36 63 c19 34 40 69 45 77 6 8 14 24 19 35 5 11 17 28 28 37 19 17
23 17 104 -12 46 -16 101 -30 121 -30 24 0 46 -8 64 -23 26 -22 27 -28 28
-129 3 -143 -1 -140 148 -136 92 2 121 6 128 18 5 8 10 65 10 127 0 104 2 113
22 127 12 9 36 16 53 16 30 0 95 19 166 47 43 18 72 11 87 -20 7 -12 16 -29
22 -37 5 -8 26 -43 45 -77 28 -50 41 -63 60 -63 13 0 27 5 30 11 4 5 17 15 28
20 48 21 143 78 150 91 9 14 -2 46 -33 93 -11 17 -23 37 -26 45 -4 8 -14 23
-21 32 -8 9 -15 32 -16 51 -1 28 6 41 38 68 21 19 55 51 74 73 20 21 46 49 58
62 25 27 74 32 93 9 7 -8 16 -15 21 -15 5 0 27 -11 48 -24 21 -14 55 -32 75
-40 35 -15 37 -14 47 7 5 12 18 36 29 52 11 17 24 39 29 50 5 11 21 37 35 58
14 21 26 43 26 49 0 21 44 59 65 56 14 -2 21 -12 23 -34z m-1948 -464 c20 -38
-8 -78 -45 -64 -15 6 -21 64 -8 77 13 14 43 6 53 -13z m1217 -7 c13 -19 12
-24 -6 -42 -17 -17 -25 -19 -42 -11 -29 16 -34 38 -13 61 22 24 42 21 61 -8z
m-619 -215 c-3 -37 -35 -50 -57 -24 -21 25 -4 56 30 56 28 0 30 -2 27 -32z
m-1112 -591 c3 -3 5 -66 5 -140 -1 -75 2 -138 8 -141 5 -3 24 1 43 9 36 14 96
12 129 -6 11 -5 27 -26 36 -47 15 -32 17 -76 18 -336 l0 -300 -27 -7 c-16 -4
-40 -4 -55 0 l-28 7 -2 284 c-1 156 -5 290 -7 297 -4 10 -19 13 -48 11 -64 -4
-67 -22 -67 -332 0 -142 -2 -260 -5 -263 -9 -10 -61 -12 -74 -4 -18 11 -18
961 0 972 13 8 65 5 74 -4z m1642 0 c18 -14 18 -963 -1 -970 -14 -5 -74 0 -86
7 -4 3 -7 217 -7 476 1 447 2 472 19 485 21 15 56 16 75 2z m1038 -8 c19 -16
14 -96 -7 -110 -18 -11 -76 -11 -83 0 -13 20 -9 113 5 121 18 12 65 6 85 -11z
m-3809 -63 c16 -7 17 -72 1 -82 -6 -4 -27 -7 -47 -6 -69 3 -65 24 -66 -407 0
-214 -3 -392 -6 -395 -9 -10 -74 -15 -87 -7 -9 5 -12 112 -14 407 l-3 399 -53
0 c-35 1 -56 6 -62 15 -11 18 -6 70 8 79 12 7 309 4 329 -3z m2025 -27 c23
-31 37 -88 38 -149 0 -61 -11 -75 -60 -75 -51 0 -60 13 -60 86 0 30 -5 60 -12
67 -19 19 -66 14 -89 -9 -19 -19 -20 -30 -17 -139 2 -65 7 -122 11 -127 5 -4
43 -9 85 -11 42 -2 83 -9 91 -16 8 -6 22 -29 32 -51 27 -59 27 -321 0 -380
-28 -63 -37 -67 -157 -67 -99 1 -109 3 -130 24 -21 21 -23 33 -25 121 -1 54 1
101 4 104 11 10 62 12 76 3 10 -5 14 -25 12 -64 -2 -65 20 -96 68 -96 48 0 53
17 53 166 0 140 -6 162 -41 149 -27 -10 -129 17 -151 40 -20 21 -21 33 -21
215 0 184 1 194 22 216 26 28 40 30 158 24 87 -5 95 -7 113 -31z m1495 -43 c4
-3 8 -29 9 -56 4 -58 11 -73 28 -67 21 8 36 -8 40 -43 5 -48 -2 -60 -35 -60
-16 0 -29 -5 -29 -12 -4 -125 1 -471 5 -479 4 -6 13 -8 19 -6 22 9 36 -9 40
-47 4 -51 -13 -66 -67 -60 -62 7 -73 12 -94 42 -16 24 -19 56 -23 292 l-5 264
-25 6 c-16 4 -26 14 -28 29 -6 38 7 71 27 71 24 0 31 19 31 79 0 26 3 51 8 55
8 9 89 2 99 -8z m-3141 -130 c12 -3 32 -21 43 -40 20 -32 21 -46 19 -193 l-3
-158 -115 -5 -115 -5 0 -81 c0 -96 16 -124 71 -124 26 0 36 6 47 28 8 15 12
32 10 38 -10 27 68 54 94 32 7 -6 13 -32 13 -61 0 -53 -27 -110 -58 -122 -9
-4 -62 -6 -117 -6 -98 1 -101 2 -127 31 l-28 30 0 288 c0 283 0 287 23 315 12
16 37 32 55 35 36 8 154 6 188 -2z m451 5 c7 -1 24 -11 38 -23 23 -21 26 -30
26 -98 1 -41 1 -81 0 -88 -1 -9 -14 -12 -43 -10 l-43 3 -3 47 c-4 57 -18 70
-74 66 l-43 -3 0 -245 0 -245 28 -9 c21 -8 35 -7 55 5 22 12 28 23 30 62 2 26
6 48 10 48 81 13 87 7 84 -88 -4 -114 -15 -122 -155 -124 -172 -2 -172 -1
-172 366 0 220 2 243 20 279 28 56 75 67 242 57z m1656 -14 c12 -8 30 -37 40
-65 17 -45 18 -78 15 -294 -3 -207 -6 -248 -21 -274 -10 -18 -23 -37 -30 -43
-19 -15 -234 -16 -252 -1 -43 36 -48 67 -53 304 -3 194 -1 240 13 292 18 67
29 81 69 92 45 12 196 5 219 -11z m540 4 c12 -9 14 -62 12 -279 -1 -290 3
-322 48 -322 13 0 31 6 41 13 16 12 18 36 17 292 -1 154 3 286 8 294 5 8 26
14 51 14 25 0 46 -6 51 -14 14 -22 11 -676 -3 -685 -6 -4 -32 -6 -57 -5 -59 3
-64 3 -140 1 -57 -1 -67 1 -90 24 l-26 26 -3 316 c-2 225 0 320 9 330 12 15
62 13 82 -5z m780 1 c11 -9 13 -78 13 -348 -1 -327 -2 -337 -21 -344 -17 -6
-45 -7 -77 -1 -14 2 -10 685 4 699 13 13 62 10 81 -6z m440 -1 c15 -6 33 -23
39 -38 15 -36 21 -510 7 -575 -16 -71 -28 -77 -155 -79 -60 0 -116 2 -126 6
-9 3 -26 28 -37 55 -19 45 -21 67 -21 287 1 201 4 246 19 288 15 43 22 51 53
60 46 13 184 10 221 -4z m322 7 c11 -1 40 1 64 4 52 6 100 -11 119 -41 18 -31
19 -651 0 -662 -13 -8 -65 -6 -74 4 -3 3 -5 127 -4 275 0 164 -3 279 -10 296
-9 25 -14 27 -57 24 l-48 -3 -3 -295 c-2 -212 -6 -296 -14 -301 -12 -7 -73 -3
-87 6 -4 2 -7 155 -7 340 1 318 2 337 20 350 11 9 31 12 50 9 17 -3 40 -6 51
-6z m-4064 -1111 c0 -82 -1 -151 -4 -154 -3 -3 -10 -2 -16 2 -12 7 -16 271 -5
300 15 39 23 -10 25 -148z m1164 133 c-5 -8 -11 -8 -17 -2 -6 6 -7 16 -3 22 5
8 11 8 17 2 6 -6 7 -16 3 -22z m-1497 -7 c2 -9 -8 -13 -31 -13 -19 0 -40 -7
-47 -15 -17 -20 -6 -86 17 -103 16 -11 15 -13 -6 -28 -20 -14 -23 -23 -18 -59
5 -47 -4 -72 -22 -61 -12 8 -16 278 -4 290 12 12 106 2 111 -11z m792 -3 c20
-20 27 -55 12 -64 -12 -7 -29 7 -33 29 -7 33 -51 27 -60 -9 -5 -16 -4 -37 1
-47 14 -25 12 -39 -5 -39 -34 0 -47 82 -19 125 21 32 75 34 104 5z m1470 10
c13 -8 13 -10 0 -14 -8 -3 -28 -6 -45 -8 -24 -2 -30 -9 -36 -35 -4 -21 -1 -39
8 -52 10 -14 11 -26 4 -38 -8 -16 -15 -68 -12 -100 1 -7 14 -13 30 -13 37 0
62 -10 55 -21 -6 -10 -84 -12 -108 -3 -14 5 -16 28 -16 144 0 124 2 139 18
143 31 8 87 7 102 -3z m-2140 -166 l0 -94 30 0 29 0 3 98 c4 135 23 122 23
-15 l0 -108 -55 0 -55 0 -3 99 c-3 104 1 131 18 121 6 -3 10 -48 10 -101z
m875 96 c24 -9 26 -14 23 -62 -3 -47 -6 -53 -27 -56 -20 -3 -22 -1 -16 15 19
43 17 70 -6 92 -25 23 -16 27 26 11z m150 0 c5 -8 11 -7 21 1 27 23 27 -1 0
-30 -25 -26 -27 -34 -25 -105 2 -78 -2 -93 -20 -81 -12 7 -15 164 -5 203 7 24
19 29 29 12z m145 -51 c0 -40 6 -60 31 -95 34 -49 32 -77 -3 -72 -20 3 -23 9
-23 44 0 22 -5 47 -12 55 -15 19 -28 93 -19 114 11 30 26 4 26 -46z m90 12 c0
-51 -10 -101 -21 -101 -10 0 -12 110 -3 134 10 26 24 7 24 -33z m118 -69 c-4
-132 -22 -135 -26 -5 -3 103 2 133 19 116 6 -6 9 -53 7 -111z m162 108 c0 -5
-4 -10 -9 -10 -17 0 -31 -56 -28 -115 2 -54 4 -60 25 -63 13 -2 29 2 37 8 21
17 37 3 25 -21 -8 -14 -21 -19 -53 -19 -24 0 -48 5 -55 12 -8 8 -12 45 -12 99
0 79 2 89 22 103 26 18 48 21 48 6z m40 -5 c14 -16 5 -54 -9 -39 -14 15 -23
54 -13 54 5 0 15 -7 22 -15z m222 -2 c21 -19 25 -82 6 -101 -7 -7 -26 -12 -43
-12 -41 0 -57 -13 -53 -41 3 -26 42 -39 61 -20 13 13 47 15 47 2 0 -35 -90
-57 -118 -29 -19 19 -16 177 5 200 20 22 70 23 95 1z m540 0 c15 -13 18 -32
18 -110 0 -86 -1 -93 -20 -93 -18 0 -20 7 -20 88 0 100 -14 138 -41 106 -10
-12 -14 -43 -14 -106 0 -77 -2 -88 -17 -88 -16 0 -18 11 -18 93 0 50 4 97 8
103 6 11 32 19 71 23 8 0 23 -6 33 -16z m160 5 c-8 -8 -12 -45 -12 -100 0 -87
0 -88 25 -88 32 0 40 30 31 120 -6 68 5 100 25 69 10 -16 12 -239 3 -263 -4
-10 -18 -16 -35 -16 -34 0 -37 10 -9 28 28 17 16 32 -26 32 -44 0 -54 24 -54
122 0 74 15 108 49 108 12 0 12 -3 3 -12z m196 -106 c-4 -132 -22 -135 -26 -5
-3 103 2 133 19 116 6 -6 9 -53 7 -111z m131 104 c10 -11 10 -20 1 -37 -7 -13
-11 -52 -8 -98 2 -62 0 -76 -12 -76 -12 0 -16 18 -18 90 -4 124 6 158 37 121z
m69 2 c15 -15 17 -208 2 -208 -6 0 -10 34 -10 83 0 52 -5 92 -14 110 -16 29
-2 39 22 15z m230 -4 c37 -26 27 -114 -14 -114 -28 0 -28 0 -10 35 16 30 6 69
-20 79 -29 11 -44 -54 -21 -89 11 -17 10 -23 -10 -44 l-23 -24 0 74 c0 45 5
80 12 87 17 17 59 15 86 -4z m216 3 c13 -10 17 -24 14 -62 -3 -46 -5 -50 -30
-53 l-28 -3 17 28 c10 19 14 39 10 55 -7 26 -31 43 -48 32 -12 -7 -11 -71 1
-95 7 -13 7 -19 0 -19 -5 0 -10 -16 -10 -35 0 -29 4 -35 22 -35 12 0 30 7 40
16 16 16 18 16 24 0 11 -29 -15 -47 -65 -44 l-46 3 -3 103 c-3 99 -2 103 20
112 33 13 62 12 82 -3z m141 3 c5 -8 11 -7 21 1 27 23 27 -1 0 -30 -25 -26
-27 -34 -25 -105 2 -78 -2 -93 -20 -81 -12 7 -15 164 -5 203 7 24 19 29 29 12z
m295 -105 c0 -94 -9 -130 -27 -111 -7 6 -4 206 3 218 15 24 24 -14 24 -107z
m85 -11 c0 -81 -3 -99 -15 -99 -12 0 -14 14 -12 76 3 55 0 85 -12 106 -18 36
-11 48 18 29 19 -12 21 -23 21 -112z m139 109 c-5 -10 -9 -54 -9 -98 l0 -80
29 -3 28 -4 -3 98 c-3 70 -1 98 8 101 19 7 24 -32 21 -162 l-3 -120 -52 -1
c-60 -2 -73 13 -16 18 27 2 39 8 41 21 3 13 -3 17 -26 17 -60 0 -62 3 -62 111
0 83 3 100 18 108 26 15 35 13 26 -6z m-3191 -32 c-3 -21 0 -48 6 -60 8 -14 8
-21 1 -21 -5 0 -10 -16 -10 -35 0 -29 4 -35 22 -35 12 0 30 7 40 16 16 16 18
16 24 0 13 -35 -3 -47 -58 -44 l-53 3 -3 94 c-3 103 0 121 22 121 11 0 13 -9
9 -39z m2827 32 c1 -5 2 -52 3 -106 2 -86 0 -97 -15 -97 -16 0 -18 11 -18 98
0 54 3 102 7 105 9 9 23 9 23 0z m-3770 -73 c0 -5 -7 -10 -15 -10 -8 0 -15 5
-15 10 0 6 7 10 15 10 8 0 15 -4 15 -10z m814 -6 c12 -31 6 -102 -10 -118 -9
-9 -32 -16 -54 -16 -31 0 -43 5 -56 26 -13 19 -14 28 -5 37 9 9 16 7 30 -11
12 -16 25 -23 42 -20 21 3 24 8 23 43 0 22 -4 48 -8 58 -6 13 -4 17 12 17 11
0 23 -7 26 -16z m2460 -107 c-7 -20 -40 -30 -80 -25 -21 2 -30 9 -32 26 -3 22
12 30 23 12 9 -15 51 -12 65 5 16 19 33 5 24 -18z m-644 -77 c0 -5 -7 -10 -15
-10 -8 0 -15 5 -15 10 0 6 7 10 15 10 8 0 15 -4 15 -10z"/>
<path d="M1896 3985 c-40 -37 -34 -85 14 -110 24 -12 30 -12 58 5 41 25 45 75
9 108 -30 28 -48 28 -81 -3z"/>
<path d="M4300 4103 c-8 -4 -21 -12 -28 -20 -7 -7 -19 -13 -25 -13 -7 -1 -23
-10 -36 -21 -27 -22 -39 -94 -27 -171 6 -38 12 -47 44 -63 20 -11 48 -27 61
-37 13 -10 35 -18 48 -18 34 0 151 71 157 95 8 29 7 158 -2 171 -4 7 -32 28
-62 48 -52 34 -92 43 -130 29z"/>
<path d="M4001 3991 c-19 -14 -25 -29 -25 -56 0 -27 6 -42 25 -56 30 -23 27
-23 67 1 26 16 32 26 32 56 0 25 -7 41 -22 55 -29 23 -47 23 -77 0z"/>
<path d="M996 1708 c-17 -24 -22 -133 -7 -157 5 -7 29 -15 54 -18 39 -5 47 -2
59 18 15 25 18 145 4 168 -4 6 -27 11 -51 11 -34 0 -47 -5 -59 -22z"/>
<path d="M3079 1503 c-1 -259 -1 -265 15 -275 14 -10 78 -10 92 0 16 10 16 16
15 275 l-1 227 -60 0 -60 0 -1 -227z"/>
<path d="M4848 1501 c-2 -127 -1 -240 2 -253 5 -19 13 -23 51 -26 30 -2 50 2
58 11 8 11 11 81 9 253 l-3 239 -57 3 -57 3 -3 -230z"/>
<path d="M2802 757 c-12 -13 -22 -31 -22 -40 0 -19 36 -41 56 -33 17 7 18 56
1 80 -12 16 -14 16 -35 -7z"/>
<path d="M5810 1727 c-23 -11 -25 -19 -28 -89 -4 -101 11 -118 98 -118 52 0
61 -3 76 -25 32 -49 44 -32 44 60 l0 85 -44 0 c-64 0 -76 7 -76 46 0 23 -6 37
-19 44 -24 12 -21 12 -51 -3z"/>
</g>
</svg>
